<?xml version="1.0" encoding="UTF-8"?><svg id="Layer_1" xmlns="http://www.w3.org/2000/svg" xmlns:xlink="http://www.w3.org/1999/xlink" viewBox="0 0 611.9 212.72"><defs><style>.cls-1{filter:url(#drop-shadow-1);}.cls-1,.cls-2{fill:#0015ad;}</style><filter id="drop-shadow-1" x="209.94" y="0" width="156.36" height="212.72" filterUnits="userSpaceOnUse"><feOffset dx="1" dy="3"/><feGaussianBlur result="blur" stdDeviation="1"/><feFlood flood-color="#000" flood-opacity=".61"/><feComposite in2="blur" operator="in"/><feComposite in="SourceGraphic"/></filter></defs><path class="cls-1" d="M364.7,117.08h0c-4.2-20.56-16.31-38.24-33.02-49.7-3.7-2.54-7.63-4.78-11.75-6.67-1.11-.51-2.24-1-3.39-1.46l.98-1.56,4.89-7.75h0s-5.7-7.19-5.7-7.19l-1.52-1.91-4.52-5.68-5.73-7.22L282.77,0l-8.1,3.72-19.34,8.88h0l-13.67,6.28-19.93,9.16v55.71l3.09-1.42,4.25-9.72,5.4-12.32,7.2-3.31,34.63-15.91,20.55-9.43,5.73,7.21,4.52,5.69,4.73,5.95-3.7,5.88-20,31.73-11.82,18.77v-55.95l-13.23,6.08-18.65,8.56-.03.02-2.72,1.24v73.07l-19.93,9.16-11.79,5.41h0c2.5,8.99,6.53,17.32,11.79,24.72h0c5.44,7.66,12.19,14.29,19.93,19.61,10.11,6.94,21.9,11.6,34.63,13.26,3.4.45,6.86.67,10.37.67,16.71,0,32.2-5.14,45.01-13.93,20.91-14.36,34.62-38.43,34.62-65.71,0-5.48-.55-10.83-1.6-16ZM286.67,178.1c-3.57,0-7.05-.42-10.37-1.21-9.71-2.29-18.19-7.71-24.34-15.15h0c-2.02-2.44-3.77-5.08-5.25-7.92h0c-2.26-4.35-3.83-9.11-4.56-14.14l18.96-8.7,14.4-6.62h0l.79-1.25,21.24-33.71c9.14,2.27,17.17,7.32,23.15,14.22,6.85,7.9,10.99,18.21,10.99,29.47,0,24.86-20.15,45.01-45.01,45.01Z"/><path class="cls-2" d="M7.05,106.59c3.35,0,5.46.43,7.17,2.03,1.4,1.33,2.07,3,2.07,5.14,0,1.01-.16,2.07-.78,3.08-.58,1.01-1.36,1.52-1.95,1.79.47.12,2.07.55,3.35,1.87,1.4,1.48,1.71,3.27,1.71,4.87,0,1.87-.47,3.35-1.71,4.68-2.07,2.18-5.3,2.53-7.29,2.53H3.12v-25.99h3.94ZM7.09,117.78h1.21c.97,0,2.3-.12,3.23-1.01.9-.86,1.01-2.07,1.01-2.96,0-.78-.12-1.71-.94-2.49-.9-.86-2.03-.97-3.16-.97h-1.36v7.44ZM7.09,128.84h2.42c1.13,0,2.92-.19,3.94-1.01.78-.62,1.29-1.71,1.29-2.88,0-1.05-.39-2.07-1.05-2.73-1.09-1.05-2.69-1.17-4.09-1.17h-2.49v7.79Z"/><path class="cls-2" d="M52.14,126.31h-11.11l-2.84,6.27h-4.29l12.94-27.51,12.31,27.51h-4.29l-2.73-6.27ZM50.54,122.57l-3.86-8.81-4.01,8.81h7.87Z"/><path class="cls-2" d="M80.31,106.59c3.16,0,5.18.39,6.86,1.52,2.84,1.91,3.08,4.99,3.08,6.12,0,3.74-2.3,6.47-5.77,7.25l8.11,11.11h-4.79l-7.44-10.64h-.7v10.64h-3.98v-25.99h4.64ZM79.65,118.52h1.25c1.09,0,5.53-.12,5.53-4.25,0-3.66-3.47-4.01-5.42-4.01h-1.36v8.26Z"/><path class="cls-2" d="M117.6,106.59v16.83c0,2.07-.08,4.13-.97,5.92-.82,1.64-2.57,3.74-6.12,3.74-2.3,0-3.82-.82-4.6-1.33l1.95-3.35c.51.43,1.33.94,2.73.94.66,0,1.95-.12,2.61-1.75.23-.58.43-1.52.43-4.17v-16.83h3.98Z"/><path class="cls-2" d="M151.43,110.33h-10.37v6.59h10.05v3.74h-10.05v8.18h10.37v3.74h-14.34v-25.99h14.34v3.74Z"/><path class="cls-2" d="M181.04,112.36c-.23-.58-.58-1.13-1.17-1.64-.82-.66-1.68-.94-2.81-.94-2.42,0-3.66,1.44-3.66,3.12,0,.78.27,2.14,2.81,3.16l2.61,1.05c4.79,1.95,6.12,4.68,6.12,7.64,0,4.95-3.51,8.34-8.38,8.34-3,0-4.79-1.13-6.12-2.61-1.4-1.56-2.03-3.27-2.18-5.07l3.94-.86c0,1.29.47,2.49,1.09,3.31.74.93,1.83,1.56,3.39,1.56,2.42,0,4.29-1.75,4.29-4.37s-2.03-3.74-3.74-4.44l-2.49-1.05c-2.14-.9-5.3-2.69-5.3-6.59,0-3.51,2.73-6.86,7.6-6.86,2.81,0,4.4,1.05,5.22,1.75.7.62,1.44,1.52,1.99,2.61l-3.2,1.87Z"/><path class="cls-2" d="M409.83,126.31h-11.11l-2.84,6.27h-4.29l12.94-27.51,12.31,27.51h-4.29l-2.73-6.27ZM408.23,122.57l-3.86-8.81-4.01,8.81h7.87Z"/><path class="cls-2" d="M433.36,132.58v-27.75l18.86,19.76v-18h3.98v27.59l-18.86-19.76v18.16h-3.98Z"/><path class="cls-2" d="M489.12,119.06h10.72v.19c0,4.44-1.33,8.07-3.86,10.52-2.69,2.61-5.88,3.31-8.85,3.31-3.78,0-6.47-1.09-8.85-3.55-2.53-2.61-3.86-6.08-3.86-9.82,0-4.05,1.64-7.56,3.78-9.7,2.22-2.26,5.77-3.9,9.78-3.9,2.34,0,4.75.51,6.78,1.64,2.14,1.21,3.47,2.73,4.21,3.9l-3.16,2.22c-.78-1.09-1.95-2.26-3.2-2.96-1.44-.86-3-1.13-4.6-1.13-3.39,0-5.57,1.4-6.86,2.69-1.71,1.71-2.77,4.48-2.77,7.29,0,2.61.97,5.22,2.69,7.05,1.79,1.91,4.01,2.61,6.51,2.61,2.26,0,4.13-.66,5.81-2.3,1.44-1.4,2.03-2.92,2.18-4.4h-6.47v-3.66Z"/><path class="cls-2" d="M522.05,106.59v15.67c0,1.4.04,3.12.82,4.48.78,1.33,2.53,2.69,4.83,2.69s4.05-1.36,4.83-2.69c.78-1.36.82-3.08.82-4.48v-15.67h3.98v16.72c0,2.07-.43,4.56-2.42,6.74-1.36,1.48-3.66,3.04-7.21,3.04s-5.85-1.56-7.21-3.04c-1.99-2.18-2.42-4.68-2.42-6.74v-16.72h3.98Z"/><path class="cls-2" d="M560.78,106.59v22.25h7.64v3.74h-11.61v-25.99h3.98Z"/><path class="cls-2" d="M610.04,119.61c0,7.64-5.73,13.48-13.52,13.48s-13.52-5.85-13.52-13.48,5.73-13.48,13.52-13.48,13.52,5.85,13.52,13.48ZM606.06,119.61c0-5.77-3.98-9.82-9.55-9.82s-9.55,4.05-9.55,9.82,3.98,9.82,9.55,9.82,9.55-4.05,9.55-9.82Z"/></svg>