<?xml version="1.0" encoding="UTF-8"?><svg id="Layer_1" xmlns="http://www.w3.org/2000/svg" xmlns:xlink="http://www.w3.org/1999/xlink" viewBox="0 0 273.86 372.57"><defs><style>.cls-1{fill:url(#linear-gradient-2);}.cls-2{fill:url(#linear-gradient);}</style><linearGradient id="linear-gradient" x1="136.93" y1="372.47" x2="136.93" y2="103.88" gradientUnits="userSpaceOnUse"><stop offset="0" stop-color="#00a4ff"/><stop offset=".14" stop-color="#008bfe"/><stop offset=".44" stop-color="#004dfd"/><stop offset=".58" stop-color="#0030fd"/><stop offset=".67" stop-color="#002aeb"/><stop offset=".87" stop-color="#001bbf"/><stop offset=".94" stop-color="#0015ad"/></linearGradient><linearGradient id="linear-gradient-2" x1="136.48" y1="7.73" x2="34.94" y2="233.37" gradientUnits="userSpaceOnUse"><stop offset=".07" stop-color="#00a4ff"/><stop offset=".19" stop-color="#00a0fe"/><stop offset=".28" stop-color="#0096fe"/><stop offset=".37" stop-color="#0086fe"/><stop offset=".45" stop-color="#006efe"/><stop offset=".52" stop-color="#0050fd"/><stop offset=".59" stop-color="#0030fd"/><stop offset=".67" stop-color="#002aeb"/><stop offset=".83" stop-color="#001bbf"/><stop offset=".89" stop-color="#0015ad"/></linearGradient></defs><path class="cls-2" d="M271.05,204.96h0c-7.35-36.01-28.57-66.97-57.83-87.05-6.48-4.45-13.37-8.37-20.58-11.69-1.78-.81-3.59-1.6-5.42-2.35l-33.29,52.74c15.8,4.03,29.68,12.81,40.04,24.76,12,13.83,19.25,31.89,19.25,51.61,0,43.54-35.29,78.84-78.83,78.84-6.25,0-12.34-.74-18.17-2.12-17-4.01-31.86-13.51-42.63-26.54h0c-3.53-4.28-6.61-8.9-9.19-13.87h0c-3.95-7.62-6.71-15.95-7.99-24.76l-.85-.41v.8l-34.91,16.04L0,270.45H0c4.37,15.74,11.43,30.33,20.65,43.29h0c9.53,13.41,21.35,25.03,34.91,34.34,17.71,12.15,38.36,20.32,60.66,23.22,5.95.78,12.01,1.17,18.17,1.17,29.26,0,56.4-9.01,78.83-24.39,36.62-25.15,60.64-67.31,60.64-115.09,0-9.6-.96-18.96-2.81-28.03Z"/><path class="cls-1" d="M187.08,103.86l1.72-2.74,8.57-13.58h0s-9.99-12.6-9.99-12.6l-2.66-3.34-7.91-9.95-10.03-12.65L127.93.1l-14.18,6.52-33.87,15.55h-.01l-23.94,11-34.91,16.04v97.58l5.41-2.49,7.44-17.02,9.45-21.57,12.61-5.8,60.66-27.86,36-16.52,10.03,12.63,7.91,9.96,8.28,10.42-6.48,10.3-35.03,55.57-20.71,32.87v-97.99l-23.18,10.65-32.67,15-.05.03-4.76,2.18v127.1l.85.41s0,.05.01.07l33.19-15.23,25.22-11.59h.01l1.38-2.19s70.65-111.8,70.49-111.86Z"/></svg>