<?xml version="1.0" encoding="UTF-8"?>
<svg id="Layer_3" data-name="Layer 3" xmlns="http://www.w3.org/2000/svg" viewBox="0 0 1470.17 415.72">
  <defs>
    <style>
      .cls-1 {
        fill: #f4d84f;
      }

      .cls-2 {
        fill: #f1cc30;
      }

      .cls-3, .cls-4 {
        fill: #2d2b2a;
      }

      .cls-5 {
        fill: #f8e78d;
      }

      .cls-4 {
        font-family: OpenSans, 'Open Sans';
        font-size: 52.21px;
      }
    </style>
  </defs>
  <g id="Layer_1" data-name="Layer 1">
    <g>
      <g>
        <path class="cls-3" d="M403.2,170.04c0-46.41,20.92-72.71,55.98-72.71,23.11,0,39.04,11.16,47.81,30.48l-13.55,8.17c-5.58-14.34-17.13-23.71-34.26-23.71-23.9,0-38.05,18.92-38.05,47.41v20.72c0,28.49,14.14,45.82,38.05,45.82,17.73,0,29.88-9.96,35.46-25.1l13.35,8.37c-8.76,19.52-25.7,31.67-48.8,31.67-35.06,0-55.98-24.7-55.98-71.12Z"/>
        <path class="cls-3" d="M524.72,187.37c0-32.67,18.92-53.79,46.41-53.79s46.41,21.12,46.41,53.79-18.92,53.79-46.41,53.79-46.41-21.12-46.41-53.79ZM600.41,194.75v-14.74c0-21.71-12.15-32.27-29.28-32.27s-29.28,10.56-29.28,32.27v14.74c0,21.71,12.15,32.27,29.28,32.27s29.28-10.56,29.28-32.27Z"/>
        <path class="cls-3" d="M635.87,238.77v-102.79h15.94v18.92h1c3.59-9.76,12.95-18.92,29.68-18.92h6.18v15.94h-9.36c-17.13,0-27.49,7.37-27.49,17.13v69.72h-15.94Z"/>
        <path class="cls-3" d="M705,238.77v-102.79h15.94v16.73h.8c4.98-11.55,13.75-19.12,29.08-19.12,21.12,0,34.46,14.34,34.46,39.24v65.94h-15.94v-63.15c0-18.33-7.97-27.69-23.31-27.69-12.75,0-25.1,6.37-25.1,19.52v71.31h-15.94Z"/>
        <path class="cls-3" d="M802.61,187.37c0-32.67,18.33-53.79,46.22-53.79s44.42,21.12,44.42,50.2v7.57h-73.9v4.78c0,17.73,11.35,31.08,30.48,31.08,12.95,0,22.91-6.37,28.29-17.73l11.35,8.17c-6.57,13.94-21.31,23.51-40.64,23.51-27.89,0-46.22-21.12-46.22-53.79ZM819.34,178.01v1.39h56.77v-2.19c0-18.13-10.96-30.28-27.29-30.28-17.33,0-29.48,13.15-29.48,31.08Z"/>
        <path class="cls-3" d="M915.56,238.77v-102.79h15.94v18.92h1c3.59-9.76,12.95-18.92,29.68-18.92h6.18v15.94h-9.36c-17.13,0-27.49,7.37-27.49,17.13v69.72h-15.94Z"/>
        <path class="cls-3" d="M974.92,221.04l11.35-9.16c7.97,9.96,17.53,15.74,30.48,15.74s21.51-6.18,21.51-16.73c0-7.97-4.38-14.14-17.93-16.14l-8.17-1.2c-18.92-2.79-33.07-10.56-33.07-29.68,0-20.32,15.74-30.28,36.65-30.28,16.53,0,27.49,6.18,35.86,16.53l-10.56,9.56c-4.58-6.37-13.35-12.55-26.49-12.55s-20.12,6.18-20.12,15.94,6.97,13.94,19.72,15.94l7.97,1.2c22.71,3.39,31.47,13.35,31.47,28.88,0,19.92-14.54,32.07-38.05,32.07-18.92,0-31.47-7.97-40.64-20.12Z"/>
        <path class="cls-3" d="M1099.03,238.77c-10.96,0-16.93-6.97-16.93-16.93v-71.91h-16.93v-13.94h9.56c6.77,0,8.96-2.39,8.96-9.36v-11.12l14.34-8v28.49h22.51v13.94h-22.51v74.9h20.92v13.94h-19.92Z"/>
        <path class="cls-3" d="M1133.89,187.37c0-32.67,18.92-53.79,46.41-53.79s46.41,21.12,46.41,53.79-18.92,53.79-46.41,53.79-46.41-21.12-46.41-53.79ZM1209.59,194.75v-14.74c0-21.71-12.15-32.27-29.28-32.27s-29.28,10.56-29.28,32.27v14.74c0,21.71,12.15,32.27,29.28,32.27s29.28-10.56,29.28-32.27Z"/>
        <path class="cls-3" d="M1245.05,238.77v-102.79h15.94v16.73h.8c4.98-11.55,13.75-19.12,29.08-19.12,21.12,0,34.46,14.34,34.46,39.24v65.94h-15.94v-63.15c0-18.33-7.97-27.69-23.31-27.69-12.75,0-25.1,6.37-25.1,19.52v71.31h-15.94Z"/>
        <path class="cls-3" d="M1342.66,187.37c0-32.67,18.33-53.79,46.21-53.79s44.42,21.12,44.42,50.2v7.57h-73.9v4.78c0,17.73,11.35,31.08,30.48,31.08,12.95,0,22.91-6.37,28.29-17.73l11.35,8.17c-6.57,13.94-21.31,23.51-40.64,23.51-27.89,0-46.21-21.12-46.21-53.79ZM1359.4,178.01v1.39h56.77v-2.19c0-18.13-10.96-30.28-27.29-30.28-17.33,0-29.48,13.15-29.48,31.08Z"/>
      </g>
      <text class="cls-4" transform="translate(1429.66 150.77)"><tspan x="0" y="0">™</tspan></text>
      <g>
        <path class="cls-3" d="M417.02,293.12h16.38c12.15,0,18.9,5.31,18.9,15.12s-7.02,15.3-18.99,15.3h-9.63v15.03h-6.66v-45.45ZM433.31,317.96c7.65,0,12.42-2.88,12.42-9.72s-4.77-9.45-12.33-9.45h-9.72v19.17h9.63Z"/>
        <path class="cls-3" d="M494.24,293.12h6.66v39.69h23.4v5.76h-30.06v-45.45Z"/>
        <path class="cls-3" d="M579.65,293.12h6.66l17.1,45.45h-6.39l-4.86-12.15h-18.18l-4.41,12.15h-6.57l16.65-45.45ZM590.36,321.2l-7.38-20.25-7.38,20.25h14.76Z"/>
        <path class="cls-3" d="M642.29,293.12h5.76l24.75,35.01v-35.01h6.48v45.45h-6.48l-23.94-34.11v34.11h-6.57v-45.45Z"/>
        <path class="cls-3" d="M725.18,293.12h5.76l24.75,35.01v-35.01h6.48v45.45h-6.48l-23.94-34.11v34.11h-6.57v-45.45Z"/>
        <path class="cls-3" d="M810.14,293.12h6.57v45.45h-6.57v-45.45Z"/>
        <path class="cls-3" d="M862.61,293.12h5.76l24.75,35.01v-35.01h6.48v45.45h-6.48l-23.94-34.11v34.11h-6.57v-45.45Z"/>
        <path class="cls-3" d="M982.57,334.97c-4.05,2.34-10.17,4.32-17.28,4.32-14.4,0-23.13-8.73-23.13-23.13s9-23.67,23.22-23.67c7.02,0,13.05,1.8,16.47,3.33v6.66c-3.87-2.07-9.36-4.32-16.38-4.32-11.07,0-16.56,8.19-16.56,18.27s5.49,17.19,16.38,17.19c5.22,0,8.91-1.08,11.25-2.16v-10.8h-14.31v-5.58h20.34v19.89Z"/>
        <path class="cls-3" d="M1106.23,334.97c-4.05,2.34-10.17,4.32-17.28,4.32-14.4,0-23.13-8.73-23.13-23.13s9-23.67,23.22-23.67c7.02,0,13.05,1.8,16.47,3.33v6.66c-3.87-2.07-9.36-4.32-16.38-4.32-11.07,0-16.56,8.19-16.56,18.27s5.49,17.19,16.38,17.19c5.22,0,8.91-1.08,11.25-2.16v-10.8h-14.31v-5.58h20.34v19.89Z"/>
        <path class="cls-3" d="M1150.69,293.12h16.29c10.44,0,17.82,3.69,17.82,13.14,0,8.82-6.93,11.79-10.53,12.42l11.16,19.89h-7.47l-9.99-18.81h-10.62v18.81h-6.66v-45.45ZM1167.07,314.09c6.93,0,11.43-1.98,11.43-7.74s-4.77-7.56-11.52-7.56h-9.63v15.3h9.72Z"/>
        <path class="cls-3" d="M1246.72,292.49c13.77,0,21.06,10.71,21.06,22.77,0,13.41-7.29,24.03-20.97,24.03-14.58,0-21.87-11.16-21.87-23.22,0-13.41,7.38-23.58,21.78-23.58ZM1246.72,333.62c10.35,0,14.4-8.55,14.4-18.36,0-9.09-4.59-17.1-14.4-17.1-11.07,0-15.03,8.01-15.03,17.91,0,9,4.5,17.55,15.03,17.55Z"/>
        <path class="cls-3" d="M1308.55,293.12h6.57v27.9c0,6.39,3.15,12.6,11.88,12.6s11.88-6.93,11.88-12.69v-27.81h6.57v27.9c0,9.72-5.76,18.27-18.45,18.27-10.89,0-18.45-6.12-18.45-18.27v-27.9Z"/>
        <path class="cls-3" d="M1387.66,293.12h16.38c12.15,0,18.9,5.31,18.9,15.12s-7.02,15.3-18.99,15.3h-9.63v15.03h-6.66v-45.45ZM1403.95,317.96c7.65,0,12.42-2.88,12.42-9.72s-4.77-9.45-12.33-9.45h-9.72v19.17h9.63Z"/>
      </g>
      <g>
        <g>
          <path class="cls-5" d="M338.8,103.3v92.28l-169.48,93.29.26-100.43,162.22-89.28c3.15-1.73,7,.54,7,4.14Z"/>
          <path class="cls-5" d="M338.8,224.04v93.63c0,4.1-2.23,7.87-5.82,9.85l-134.76,74.17-22.47,12.37s-.07.04-.11.06c-1.96,1.06-4.14,1.59-6.31,1.59l.03-15.24.22-83.31,169.22-93.13Z"/>
          <path class="cls-2" d="M169.59,96.93l-80.89,47.09L0,195.66v-96.44c0-1.22.33-2.39.92-3.41.58-1.01,1.42-1.86,2.46-2.47L162.32.65c3.14-1.84,7.09.43,7.1,4.06l.17,92.21Z"/>
          <path class="cls-1" d="M169.58,188.44l-.26,100.43L0,195.66v-96.44c0-1.22.33-2.39.92-3.41l87.78,48.21,80.89,44.43Z"/>
          <path class="cls-1" d="M169.58,317.17l-.22,83.31-.03,15.24c-2.17,0-4.33-.52-6.3-1.59-.04-.02-.09-.04-.13-.07l-27.27-15.02h0L5.83,327.59c-3.6-1.98-5.83-5.75-5.83-9.85v-93.7l169.58,93.13Z"/>
        </g>
        <polygon class="cls-2" points="133.92 144.02 168.91 123.65 168.91 163.24 133.92 144.02"/>
      </g>
    </g>
  </g>
</svg>