<svg width="10" height="20" viewBox="0 0 10 20" fill="none" xmlns="http://www.w3.org/2000/svg">
<path d="M2.95418 20.0005C2.95418 19.9525 2.95878 19.902 2.95878 19.854C2.95878 16.8994 2.95878 13.9472 2.95878 10.9926V10.8797H2.83675C1.93415 10.8797 1.03155 10.8797 0.126641 10.8797C0.00230255 10.8797 0 10.8797 0 10.7548C0 9.64983 0 8.54245 0 7.43748C0 7.33659 0.0299332 7.31017 0.122035 7.31257C1.02464 7.31497 1.92724 7.31257 2.83214 7.31257H2.95878C2.95878 7.27413 2.95878 7.2405 2.95878 7.20687C2.95878 6.28687 2.95418 5.36926 2.96569 4.44925C2.9749 3.7094 3.11306 2.99357 3.4216 2.32338C3.84066 1.41298 4.49919 0.762003 5.39719 0.372861C5.99586 0.11103 6.62215 -0.00907526 7.26687 0.000533194C8.00599 0.0125438 8.74511 0.0461734 9.48423 0.0749987C9.62238 0.0798029 9.75823 0.103824 9.89638 0.11103C9.97237 0.115835 9.9977 0.14466 9.9977 0.22393C9.99539 0.682734 9.9977 1.13914 9.9977 1.59794C9.9977 2.13841 9.9977 2.67649 9.9977 3.21696C9.9977 3.31065 9.97237 3.33947 9.88257 3.33947C9.32075 3.33467 8.75892 3.32746 8.1994 3.33947C7.94382 3.34668 7.68593 3.3755 7.43725 3.43075C6.95602 3.54125 6.67281 3.87274 6.5761 4.36998C6.53696 4.56935 6.51623 4.77834 6.51393 4.98252C6.50702 5.73198 6.51163 6.48144 6.51163 7.2309C6.51163 7.25251 6.51393 7.27654 6.51623 7.31017H6.63827C7.67212 7.31017 8.70827 7.31017 9.74211 7.31017C9.87796 7.31017 9.88027 7.31017 9.86415 7.44468C9.79047 8.0332 9.71448 8.62172 9.6431 9.21264C9.58324 9.70507 9.52337 10.1975 9.46581 10.6899C9.44508 10.8773 9.44969 10.8773 9.26779 10.8773C8.39051 10.8773 7.51094 10.8773 6.63366 10.8773H6.51163V11.019C6.51163 13.94 6.51163 16.861 6.51163 19.7819C6.51163 19.854 6.51163 19.9261 6.51163 19.9981H2.95648L2.95418 20.0005Z" fill="#0015AD"/>
</svg>
