<svg width="19" height="20" viewBox="0 0 19 20" fill="none" xmlns="http://www.w3.org/2000/svg">
<path d="M13.4728 20H5.52718C2.48603 20 0 17.4505 0 14.3373V5.66271C0 2.54946 2.48844 0 5.52718 0H13.4728C16.514 0 19 2.54946 19 5.66271V14.3373C19 17.453 16.5116 20 13.4728 20ZM13.4728 18.504C14.5541 18.504 15.5727 18.0687 16.345 17.2774C17.1174 16.4862 17.5398 15.4426 17.5398 14.3348V5.66271C17.5398 4.5549 17.115 3.51137 16.345 2.72008C15.5727 1.92878 14.5541 1.49357 13.4728 1.49357H5.52718C4.44588 1.49357 3.42734 1.92878 2.65498 2.72008C1.88262 3.51137 1.45783 4.5549 1.45783 5.66271V14.3373C1.45783 15.4451 1.88262 16.4886 2.65498 17.2799C3.42734 18.0712 4.44588 18.5064 5.52718 18.5064H13.4728V18.504Z" fill="#0015AD"/>
<path d="M14.7617 9.92335C14.7617 12.8833 12.4181 15.2844 9.52899 15.2844C6.63989 15.2844 4.29626 12.8833 4.29626 9.92335C4.29626 6.9634 6.63989 4.56232 9.52899 4.56232C12.4181 4.56232 14.7617 6.9634 14.7617 9.92335ZM9.50485 6.41692C7.61258 6.41692 6.07752 7.98962 6.07752 9.92829C6.07752 11.867 7.61258 13.4397 9.50485 13.4397C11.3971 13.4397 12.9322 11.867 12.9322 9.92829C12.9322 7.98962 11.3971 6.41692 9.50485 6.41692Z" fill="#0015AD"/>
<path d="M16.0844 4.47824C16.0844 5.17804 15.5293 5.74679 14.8462 5.74679C14.1632 5.74679 13.608 5.17804 13.608 4.47824C13.608 3.77844 14.1632 3.20969 14.8462 3.20969C15.5293 3.20969 16.0844 3.77844 16.0844 4.47824Z" fill="#0015AD"/>
</svg>
