<svg width="20" height="20" viewBox="0 0 20 20" fill="none" xmlns="http://www.w3.org/2000/svg">
<path d="M0.330671 6.64234H4.47527V20.0028H0.330671V6.64234ZM2.40437 0C3.72986 0 4.80594 1.07805 4.80594 2.40595C4.80594 3.73386 3.72986 4.81471 2.40437 4.81471C1.07888 4.81471 0 3.73666 0 2.40595C0 1.07524 1.07608 0 2.40437 0Z" fill="#0015AD"/>
<path d="M7.0758 6.64233H11.0523V8.46715H11.1083C11.6604 7.41718 13.0139 6.30825 15.0287 6.30825C19.2266 6.30825 20 9.07636 20 12.6727V20H15.8582V13.5036C15.8582 11.954 15.8302 9.96069 13.7032 9.96069C11.5763 9.96069 11.2148 11.6479 11.2148 13.3914V20H7.073V6.64233H7.0758Z" fill="#0015AD"/>
</svg>
